<mxfile host="app.diagrams.net" modified="2024-05-31T01:58:56.045Z" agent="Mozilla/5.0 (Windows NT 10.0; Win64; x64) AppleWebKit/537.36 (KHTML, like Gecko) Chrome/125.0.0.0 Safari/537.36" etag="L0cXMearcgGTXSb-_Izh" version="24.4.10" type="github">
  <diagram name="第 1 页" id="1hY-kYEjhcQh1O-Mieti">
    <mxGraphModel dx="1014" dy="514" grid="1" gridSize="10" guides="1" tooltips="1" connect="1" arrows="1" fold="1" page="1" pageScale="1" pageWidth="827" pageHeight="1169" math="0" shadow="0">
      <root>
        <mxCell id="0" />
        <mxCell id="1" parent="0" />
        <mxCell id="niocF2I4TGbTJQTXQYwP-3" value="&lt;font style=&quot;font-size: 18px;&quot;&gt;Stable Diffusion&lt;/font&gt;" style="rounded=1;whiteSpace=wrap;html=1;" vertex="1" parent="1">
          <mxGeometry x="555" y="110" width="120" height="60" as="geometry" />
        </mxCell>
        <mxCell id="niocF2I4TGbTJQTXQYwP-4" value="&lt;font style=&quot;font-size: 18px;&quot;&gt;Dall-e&lt;/font&gt;" style="rounded=1;whiteSpace=wrap;html=1;" vertex="1" parent="1">
          <mxGeometry x="555" y="195" width="120" height="60" as="geometry" />
        </mxCell>
        <mxCell id="niocF2I4TGbTJQTXQYwP-5" value="&lt;span style=&quot;font-size: 18px;&quot;&gt;Midjourney&lt;/span&gt;" style="rounded=1;whiteSpace=wrap;html=1;" vertex="1" parent="1">
          <mxGeometry x="555" y="280" width="120" height="60" as="geometry" />
        </mxCell>
        <mxCell id="niocF2I4TGbTJQTXQYwP-11" style="edgeStyle=orthogonalEdgeStyle;rounded=0;orthogonalLoop=1;jettySize=auto;html=1;entryX=0;entryY=0.5;entryDx=0;entryDy=0;" edge="1" parent="1" source="niocF2I4TGbTJQTXQYwP-6" target="niocF2I4TGbTJQTXQYwP-10">
          <mxGeometry relative="1" as="geometry" />
        </mxCell>
        <mxCell id="niocF2I4TGbTJQTXQYwP-6" value="Actor" style="shape=umlActor;verticalLabelPosition=bottom;verticalAlign=top;html=1;outlineConnect=0;" vertex="1" parent="1">
          <mxGeometry x="160" y="190" width="40" height="70" as="geometry" />
        </mxCell>
        <mxCell id="niocF2I4TGbTJQTXQYwP-12" style="edgeStyle=orthogonalEdgeStyle;rounded=0;orthogonalLoop=1;jettySize=auto;html=1;entryX=0;entryY=0.5;entryDx=0;entryDy=0;" edge="1" parent="1" source="niocF2I4TGbTJQTXQYwP-10" target="niocF2I4TGbTJQTXQYwP-3">
          <mxGeometry relative="1" as="geometry" />
        </mxCell>
        <mxCell id="niocF2I4TGbTJQTXQYwP-13" style="edgeStyle=orthogonalEdgeStyle;rounded=0;orthogonalLoop=1;jettySize=auto;html=1;" edge="1" parent="1" source="niocF2I4TGbTJQTXQYwP-10" target="niocF2I4TGbTJQTXQYwP-4">
          <mxGeometry relative="1" as="geometry">
            <Array as="points">
              <mxPoint x="520" y="225" />
              <mxPoint x="520" y="225" />
            </Array>
          </mxGeometry>
        </mxCell>
        <mxCell id="niocF2I4TGbTJQTXQYwP-14" style="edgeStyle=orthogonalEdgeStyle;rounded=0;orthogonalLoop=1;jettySize=auto;html=1;entryX=0;entryY=0.5;entryDx=0;entryDy=0;" edge="1" parent="1" source="niocF2I4TGbTJQTXQYwP-10" target="niocF2I4TGbTJQTXQYwP-5">
          <mxGeometry relative="1" as="geometry" />
        </mxCell>
        <mxCell id="niocF2I4TGbTJQTXQYwP-16" value="" style="edgeStyle=orthogonalEdgeStyle;rounded=0;orthogonalLoop=1;jettySize=auto;html=1;dashed=1;curved=1;" edge="1" parent="1" source="niocF2I4TGbTJQTXQYwP-10" target="niocF2I4TGbTJQTXQYwP-15">
          <mxGeometry relative="1" as="geometry" />
        </mxCell>
        <mxCell id="niocF2I4TGbTJQTXQYwP-10" value="&lt;font style=&quot;font-size: 18px;&quot;&gt;路由策略&lt;/font&gt;" style="rounded=1;whiteSpace=wrap;html=1;" vertex="1" parent="1">
          <mxGeometry x="310" y="195" width="120" height="60" as="geometry" />
        </mxCell>
        <mxCell id="niocF2I4TGbTJQTXQYwP-15" value="&lt;font style=&quot;font-size: 18px;&quot;&gt;尺寸、风格，是否无缝贴图&lt;/font&gt;" style="rounded=1;whiteSpace=wrap;html=1;" vertex="1" parent="1">
          <mxGeometry x="200" y="340" width="120" height="60" as="geometry" />
        </mxCell>
      </root>
    </mxGraphModel>
  </diagram>
</mxfile>
